<?xml version="1.0" encoding="UTF-8" standalone="no"?>
<!-- Created with Inkscape (http://www.inkscape.org/) -->

<svg
   width="108.96869mm"
   height="405.13828mm"
   viewBox="0 0 108.96869 405.13828"
   version="1.1"
   id="svg5"
   inkscape:export-filename="flores.svg"
   inkscape:export-xdpi="96"
   inkscape:export-ydpi="96"
   xmlns:inkscape="http://www.inkscape.org/namespaces/inkscape"
   xmlns:sodipodi="http://sodipodi.sourceforge.net/DTD/sodipodi-0.dtd"
   xmlns="http://www.w3.org/2000/svg"
   xmlns:svg="http://www.w3.org/2000/svg">
  <sodipodi:namedview
     id="namedview7"
     pagecolor="#ffffff"
     bordercolor="#000000"
     borderopacity="0.25"
     inkscape:showpageshadow="2"
     inkscape:pageopacity="0.0"
     inkscape:pagecheckerboard="0"
     inkscape:deskcolor="#d1d1d1"
     inkscape:document-units="mm"
     showgrid="false" />
  <defs
     id="defs2" />
  <g
     inkscape:label="Capa 1"
     inkscape:groupmode="layer"
     id="layer1"
     style="display:inline"
     transform="translate(19.379288,59.184981)">
    <g
       id="g4583"
       transform="matrix(-0.20684807,3.1536567,-0.86702844,-0.89587993,96.741818,27.720956)">
      <path
         style="fill:#59b68d;fill-opacity:1;stroke:#42a36b;stroke-width:2;stroke-opacity:1"
         d="m 45.96281,108.72237 c 0,0 14.88121,-33.437892 54.58125,-17.429816 C 81.012785,121.76921 45.96281,108.72237 45.96281,108.72237 Z"
         id="path4579" />
      <path
         style="fill:#59b68d;fill-opacity:1;stroke:#42a36b;stroke-width:2;stroke-opacity:1"
         d="M 91.934741,94.474519 C 74.890368,106.75476 59.952523,92.876702 47.318753,108.53294"
         id="path4581"
         sodipodi:nodetypes="cc" />
    </g>
    <g
       id="g4589"
       transform="matrix(-0.20684807,3.1536567,-0.86702844,-0.89587993,96.741818,27.720956)">
      <path
         style="fill:#59b68d;fill-opacity:1;stroke:#42a36b;stroke-width:2;stroke-opacity:1"
         d="m 45.96281,108.72237 c 0,0 14.88121,-33.437892 54.58125,-17.429816 C 81.012785,121.76921 45.96281,108.72237 45.96281,108.72237 Z"
         id="path4585" />
      <path
         style="fill:#59b68d;fill-opacity:1;stroke:#42a36b;stroke-width:2;stroke-opacity:1"
         d="M 91.934741,94.474519 C 74.890368,106.75476 59.952523,92.876702 47.318753,108.53294"
         id="path4587"
         sodipodi:nodetypes="cc" />
    </g>
    <g
       id="g4595"
       transform="matrix(-0.64885601,3.0931089,-0.73224027,-1.0090408,122.85981,-86.912145)">
      <path
         style="fill:#59b68d;fill-opacity:1;stroke:#42a36b;stroke-width:2;stroke-opacity:1"
         d="m 45.96281,108.72237 c 0,0 14.88121,-33.437892 54.58125,-17.429816 C 81.012785,121.76921 45.96281,108.72237 45.96281,108.72237 Z"
         id="path4591" />
      <path
         style="fill:#59b68d;fill-opacity:1;stroke:#42a36b;stroke-width:2;stroke-opacity:1"
         d="M 91.934741,94.474519 C 74.890368,106.75476 59.952523,92.876702 47.318753,108.53294"
         id="path4593"
         sodipodi:nodetypes="cc" />
    </g>
    <g
       id="g4601"
       transform="matrix(0.33632423,3.1424867,-1.0076522,-0.73415004,70.995722,12.51179)">
      <path
         style="fill:#59b68d;fill-opacity:1;stroke:#42a36b;stroke-width:2;stroke-opacity:1"
         d="m 45.96281,108.72237 c 0,0 14.88121,-33.437892 54.58125,-17.429816 C 81.012785,121.76921 45.96281,108.72237 45.96281,108.72237 Z"
         id="path4597" />
      <path
         style="fill:#59b68d;fill-opacity:1;stroke:#42a36b;stroke-width:2;stroke-opacity:1"
         d="M 91.934741,94.474519 C 74.890368,106.75476 59.952523,92.876702 47.318753,108.53294"
         id="path4599"
         sodipodi:nodetypes="cc" />
    </g>
    <g
       id="g4607"
       transform="matrix(-0.40813201,3.1339695,-0.80795285,-0.94950062,114.22705,21.251999)">
      <path
         style="fill:#59b68d;fill-opacity:1;stroke:#42a36b;stroke-width:2;stroke-opacity:1"
         d="m 45.96281,108.72237 c 0,0 14.88121,-33.437892 54.58125,-17.429816 C 81.012785,121.76921 45.96281,108.72237 45.96281,108.72237 Z"
         id="path4603" />
      <path
         style="fill:#59b68d;fill-opacity:1;stroke:#42a36b;stroke-width:2;stroke-opacity:1"
         d="M 91.934741,94.474519 C 74.890368,106.75476 59.952523,92.876702 47.318753,108.53294"
         id="path4605"
         sodipodi:nodetypes="cc" />
    </g>
    <g
       id="g4613"
       transform="matrix(-0.69145429,3.0838657,-0.71825402,-1.0190439,134.65054,123.83072)">
      <path
         style="fill:#59b68d;fill-opacity:1;stroke:#42a36b;stroke-width:2;stroke-opacity:1"
         d="m 45.96281,108.72237 c 0,0 14.88121,-33.437892 54.58125,-17.429816 C 81.012785,121.76921 45.96281,108.72237 45.96281,108.72237 Z"
         id="path4609" />
      <path
         style="fill:#59b68d;fill-opacity:1;stroke:#42a36b;stroke-width:2;stroke-opacity:1"
         d="M 91.934741,94.474519 C 74.890368,106.75476 59.952523,92.876702 47.318753,108.53294"
         id="path4611"
         sodipodi:nodetypes="cc" />
    </g>
    <g
       id="g2722"
       transform="matrix(1.2473371,0,0,1.2473371,-50.507575,155.10763)">
      <path
         style="fill:#59b68d;fill-opacity:1;stroke:#42a36b;stroke-width:2;stroke-opacity:1"
         d="m 45.96281,108.72237 c 0,0 14.88121,-33.437892 54.58125,-17.429816 C 81.012785,121.76921 45.96281,108.72237 45.96281,108.72237 Z"
         id="path2667" />
      <path
         style="fill:#59b68d;fill-opacity:1;stroke:#42a36b;stroke-width:2;stroke-opacity:1"
         d="M 91.934741,94.474519 C 74.890368,106.75476 59.952523,92.876702 47.318753,108.53294"
         id="path2669"
         sodipodi:nodetypes="cc" />
    </g>
    <g
       id="g2754"
       transform="matrix(1.0126485,0.72828076,-0.72828076,1.0126485,57.890765,43.576697)">
      <path
         style="fill:#59b68d;fill-opacity:1;stroke:#42a36b;stroke-width:2;stroke-opacity:1"
         d="m 47.79903,124.42791 c 0,0 14.88121,-33.437894 54.58125,-17.42982 -19.531275,30.47666 -54.58125,17.42982 -54.58125,17.42982 z"
         id="path2750" />
      <path
         style="fill:#59b68d;fill-opacity:1;stroke:#42a36b;stroke-width:2;stroke-opacity:1"
         d="M 93.770961,110.18006 C 76.726588,122.4603 61.788743,108.58224 49.154973,124.23848"
         id="path2752"
         sodipodi:nodetypes="cc" />
    </g>
    <g
       id="g2766"
       transform="matrix(1.2208276,0.25579267,-0.25579267,1.2208276,-21.977257,-3.7488432)">
      <path
         style="fill:#59b68d;fill-opacity:1;stroke:#42a36b;stroke-width:2;stroke-opacity:1"
         d="m 45.96281,108.72237 c 0,0 14.88121,-33.437892 54.58125,-17.429816 C 81.012785,121.76921 45.96281,108.72237 45.96281,108.72237 Z"
         id="path2762" />
      <path
         style="fill:#59b68d;fill-opacity:1;stroke:#42a36b;stroke-width:2;stroke-opacity:1"
         d="M 91.934741,94.474519 C 74.890368,106.75476 59.952523,92.876702 47.318753,108.53294"
         id="path2764"
         sodipodi:nodetypes="cc" />
    </g>
    <g
       id="g2772"
       transform="matrix(1.2447807,-0.07981692,0.07981692,1.2447807,-80.27647,-77.69602)">
      <path
         style="fill:#59b68d;fill-opacity:1;stroke:#42a36b;stroke-width:2;stroke-opacity:1"
         d="m 45.96281,108.72237 c 0,0 14.88121,-33.437892 54.58125,-17.429816 C 81.012785,121.76921 45.96281,108.72237 45.96281,108.72237 Z"
         id="path2768" />
      <path
         style="fill:#59b68d;fill-opacity:1;stroke:#42a36b;stroke-width:2;stroke-opacity:1"
         d="M 91.934741,94.474519 C 74.890368,106.75476 59.952523,92.876702 47.318753,108.53294"
         id="path2770"
         sodipodi:nodetypes="cc" />
    </g>
    <g
       id="g2778"
       transform="matrix(0.98913322,0.24963426,-0.30583676,0.93657704,-16.514463,-24.342064)">
      <path
         style="fill:#59b68d;fill-opacity:1;stroke:#42a36b;stroke-width:2;stroke-opacity:1"
         d="m 45.96281,108.72237 c 0,0 14.88121,-33.437892 54.58125,-17.429816 C 81.012785,121.76921 45.96281,108.72237 45.96281,108.72237 Z"
         id="path2774" />
      <path
         style="fill:#59b68d;fill-opacity:1;stroke:#42a36b;stroke-width:2;stroke-opacity:1"
         d="M 91.934741,94.474519 C 74.890368,106.75476 59.952523,92.876702 47.318753,108.53294"
         id="path2776"
         sodipodi:nodetypes="cc" />
    </g>
    <g
       id="g2760"
       transform="matrix(0.61344016,-0.41015648,0.27170395,0.92603166,-40.804698,43.328674)">
      <path
         style="fill:#59b68d;fill-opacity:1;stroke:#42a36b;stroke-width:2;stroke-opacity:1"
         d="m 45.96281,108.72237 c 0,0 14.88121,-33.437892 54.58125,-17.429816 C 81.012785,121.76921 45.96281,108.72237 45.96281,108.72237 Z"
         id="path2756" />
      <path
         style="fill:#59b68d;fill-opacity:1;stroke:#42a36b;stroke-width:2;stroke-opacity:1"
         d="M 91.934741,94.474519 C 74.890368,106.75476 59.952523,92.876702 47.318753,108.53294"
         id="path2758"
         sodipodi:nodetypes="cc" />
    </g>
    <g
       id="g2868"
       transform="rotate(27.256392,237.95505,-65.417179)">
      <path
         style="fill:#daeee4;fill-opacity:1;stroke:#909090;stroke-width:2.49467;stroke-opacity:1"
         d="m 175.06333,149.51925 c 0,0 -17.18691,17.9673 -42.38904,2.93378 23.22111,-26.55139 42.38904,-2.93378 42.38904,-2.93378 z"
         id="path2846"
         sodipodi:nodetypes="ccc" />
      <path
         style="fill:#daeee4;fill-opacity:1;stroke:#909090;stroke-width:2.49467;stroke-opacity:1"
         d="m 167.51665,182.73643 c 0,0 -27.4034,3.00138 -33.42845,-26.37795 25.8605,-10.77289 33.42845,26.37795 33.42845,26.37795 z"
         id="path2848"
         sodipodi:nodetypes="ccc" />
      <path
         style="fill:#daeee4;fill-opacity:1;stroke:#909090;stroke-width:2.49467;stroke-opacity:1"
         d="m 100.32264,149.07783 c 0,0 24.83512,-23.36024 39.66011,3.27118 -12.64674,20.15984 -39.66011,-3.27118 -39.66011,-3.27118 z"
         id="path2850"
         sodipodi:nodetypes="ccc" />
      <path
         style="fill:#daeee4;fill-opacity:1;stroke:#909090;stroke-width:2.49467;stroke-opacity:1"
         d="m 141.63994,115.97988 c 0,0 20.12523,22.78208 -1.34558,36.80406 -20.61081,-11.37234 1.34558,-36.80406 1.34558,-36.80406 z"
         id="path2852"
         sodipodi:nodetypes="ccc" />
      <path
         style="fill:#daeee4;fill-opacity:1;stroke:#909090;stroke-width:2.49467;stroke-opacity:1"
         d="m 113.605,185.0777 c 0,0 0.0216,-24.8639 28.63077,-31.39614 1.54258,35.23943 -28.63077,31.39614 -28.63077,31.39614 z"
         id="path2856"
         sodipodi:nodetypes="ccc" />
      <path
         style="fill:#bfd04b;fill-opacity:1;stroke:#bddf00;stroke-width:2;stroke-opacity:1"
         id="path2840"
         sodipodi:type="arc"
         sodipodi:cx="-70.736404"
         sodipodi:cy="-196.68132"
         sodipodi:rx="10.440391"
         sodipodi:ry="10.440391"
         sodipodi:start="5.7603524"
         sodipodi:end="5.7595865"
         sodipodi:arc-type="arc"
         d="m -61.690766,-201.89459 a 10.440391,10.440391 0 0 1 -3.830637,14.25791 10.440391,10.440391 0 0 1 -14.258643,-3.82791 10.440391,10.440391 0 0 1 3.825177,-14.25937 10.440391,10.440391 0 0 1 14.260108,3.82244"
         sodipodi:open="true"
         transform="rotate(157.77494)" />
    </g>
    <g
       id="g2890"
       transform="matrix(0.13494842,0.66005622,-0.69614728,0.12795215,120.43671,-93.020965)">
      <path
         style="fill:#daeee4;fill-opacity:1;stroke:#909090;stroke-width:2.49467;stroke-opacity:1"
         d="m 175.06333,149.51925 c 0,0 -17.18691,17.9673 -42.38904,2.93378 23.22111,-26.55139 42.38904,-2.93378 42.38904,-2.93378 z"
         id="path2878"
         sodipodi:nodetypes="ccc" />
      <path
         style="fill:#daeee4;fill-opacity:1;stroke:#909090;stroke-width:2.49467;stroke-opacity:1"
         d="m 167.51665,182.73643 c 0,0 -27.4034,3.00138 -33.42845,-26.37795 25.8605,-10.77289 33.42845,26.37795 33.42845,26.37795 z"
         id="path2880"
         sodipodi:nodetypes="ccc" />
      <path
         style="fill:#daeee4;fill-opacity:1;stroke:#909090;stroke-width:2.49467;stroke-opacity:1"
         d="m 100.32264,149.07783 c 0,0 24.83512,-23.36024 39.66011,3.27118 -12.64674,20.15984 -39.66011,-3.27118 -39.66011,-3.27118 z"
         id="path2882"
         sodipodi:nodetypes="ccc" />
      <path
         style="fill:#daeee4;fill-opacity:1;stroke:#909090;stroke-width:2.49467;stroke-opacity:1"
         d="m 141.63994,115.97988 c 0,0 20.12523,22.78208 -1.34558,36.80406 -20.61081,-11.37234 1.34558,-36.80406 1.34558,-36.80406 z"
         id="path2884"
         sodipodi:nodetypes="ccc" />
      <path
         style="fill:#daeee4;fill-opacity:1;stroke:#909090;stroke-width:2.49467;stroke-opacity:1"
         d="m 113.605,185.0777 c 0,0 0.0216,-24.8639 28.63077,-31.39614 1.54258,35.23943 -28.63077,31.39614 -28.63077,31.39614 z"
         id="path2886"
         sodipodi:nodetypes="ccc" />
      <path
         style="fill:#bfd04b;fill-opacity:1;stroke:#bddf00;stroke-width:2;stroke-opacity:1"
         id="path2888"
         sodipodi:type="arc"
         sodipodi:cx="-70.736404"
         sodipodi:cy="-196.68132"
         sodipodi:rx="10.440391"
         sodipodi:ry="10.440391"
         sodipodi:start="5.7603524"
         sodipodi:end="5.7595865"
         sodipodi:arc-type="arc"
         d="m -61.690766,-201.89459 a 10.440391,10.440391 0 0 1 -3.830637,14.25791 10.440391,10.440391 0 0 1 -14.258643,-3.82791 10.440391,10.440391 0 0 1 3.825177,-14.25937 10.440391,10.440391 0 0 1 14.260108,3.82244"
         sodipodi:open="true"
         transform="rotate(157.77494)" />
    </g>
    <g
       id="g2904"
       transform="matrix(-0.35842939,0.57045041,-0.59171096,-0.38842107,196.12466,167.33308)">
      <path
         style="fill:#daeee4;fill-opacity:1;stroke:#909090;stroke-width:2.49467;stroke-opacity:1"
         d="m 175.06333,149.51925 c 0,0 -17.18691,17.9673 -42.38904,2.93378 23.22111,-26.55139 42.38904,-2.93378 42.38904,-2.93378 z"
         id="path2892"
         sodipodi:nodetypes="ccc" />
      <path
         style="fill:#daeee4;fill-opacity:1;stroke:#909090;stroke-width:2.49467;stroke-opacity:1"
         d="m 167.51665,182.73643 c 0,0 -27.4034,3.00138 -33.42845,-26.37795 25.8605,-10.77289 33.42845,26.37795 33.42845,26.37795 z"
         id="path2894"
         sodipodi:nodetypes="ccc" />
      <path
         style="fill:#daeee4;fill-opacity:1;stroke:#909090;stroke-width:2.49467;stroke-opacity:1"
         d="m 100.32264,149.07783 c 0,0 24.83512,-23.36024 39.66011,3.27118 -12.64674,20.15984 -39.66011,-3.27118 -39.66011,-3.27118 z"
         id="path2896"
         sodipodi:nodetypes="ccc" />
      <path
         style="fill:#daeee4;fill-opacity:1;stroke:#909090;stroke-width:2.49467;stroke-opacity:1"
         d="m 141.63994,115.97988 c 0,0 20.12523,22.78208 -1.34558,36.80406 -20.61081,-11.37234 1.34558,-36.80406 1.34558,-36.80406 z"
         id="path2898"
         sodipodi:nodetypes="ccc" />
      <path
         style="fill:#daeee4;fill-opacity:1;stroke:#909090;stroke-width:2.49467;stroke-opacity:1"
         d="m 113.605,185.0777 c 0,0 0.0216,-24.8639 28.63077,-31.39614 1.54258,35.23943 -28.63077,31.39614 -28.63077,31.39614 z"
         id="path2900"
         sodipodi:nodetypes="ccc" />
      <path
         style="fill:#bfd04b;fill-opacity:1;stroke:#bddf00;stroke-width:2;stroke-opacity:1"
         id="path2902"
         sodipodi:type="arc"
         sodipodi:cx="-70.736404"
         sodipodi:cy="-196.68132"
         sodipodi:rx="10.440391"
         sodipodi:ry="10.440391"
         sodipodi:start="5.7603524"
         sodipodi:end="5.7595865"
         sodipodi:arc-type="arc"
         d="m -61.690766,-201.89459 a 10.440391,10.440391 0 0 1 -3.830637,14.25791 10.440391,10.440391 0 0 1 -14.258643,-3.82791 10.440391,10.440391 0 0 1 3.825177,-14.25937 10.440391,10.440391 0 0 1 14.260108,3.82244"
         sodipodi:open="true"
         transform="rotate(157.77494)" />
    </g>
    <g
       id="g2918"
       transform="matrix(-0.35842939,0.57045041,-0.59171096,-0.38842107,166.90995,122.79261)">
      <path
         style="fill:#daeee4;fill-opacity:1;stroke:#909090;stroke-width:2.49467;stroke-opacity:1"
         d="m 175.06333,149.51925 c 0,0 -17.18691,17.9673 -42.38904,2.93378 23.22111,-26.55139 42.38904,-2.93378 42.38904,-2.93378 z"
         id="path2906"
         sodipodi:nodetypes="ccc" />
      <path
         style="fill:#daeee4;fill-opacity:1;stroke:#909090;stroke-width:2.49467;stroke-opacity:1"
         d="m 167.51665,182.73643 c 0,0 -27.4034,3.00138 -33.42845,-26.37795 25.8605,-10.77289 33.42845,26.37795 33.42845,26.37795 z"
         id="path2908"
         sodipodi:nodetypes="ccc" />
      <path
         style="fill:#daeee4;fill-opacity:1;stroke:#909090;stroke-width:2.49467;stroke-opacity:1"
         d="m 100.32264,149.07783 c 0,0 24.83512,-23.36024 39.66011,3.27118 -12.64674,20.15984 -39.66011,-3.27118 -39.66011,-3.27118 z"
         id="path2910"
         sodipodi:nodetypes="ccc" />
      <path
         style="fill:#daeee4;fill-opacity:1;stroke:#909090;stroke-width:2.49467;stroke-opacity:1"
         d="m 141.63994,115.97988 c 0,0 20.12523,22.78208 -1.34558,36.80406 -20.61081,-11.37234 1.34558,-36.80406 1.34558,-36.80406 z"
         id="path2912"
         sodipodi:nodetypes="ccc" />
      <path
         style="fill:#daeee4;fill-opacity:1;stroke:#909090;stroke-width:2.49467;stroke-opacity:1"
         d="m 113.605,185.0777 c 0,0 0.0216,-24.8639 28.63077,-31.39614 1.54258,35.23943 -28.63077,31.39614 -28.63077,31.39614 z"
         id="path2914"
         sodipodi:nodetypes="ccc" />
      <path
         style="fill:#bfd04b;fill-opacity:1;stroke:#bddf00;stroke-width:2;stroke-opacity:1"
         id="path2916"
         sodipodi:type="arc"
         sodipodi:cx="-70.736404"
         sodipodi:cy="-196.68132"
         sodipodi:rx="10.440391"
         sodipodi:ry="10.440391"
         sodipodi:start="5.7603524"
         sodipodi:end="5.7595865"
         sodipodi:arc-type="arc"
         d="m -61.690766,-201.89459 a 10.440391,10.440391 0 0 1 -3.830637,14.25791 10.440391,10.440391 0 0 1 -14.258643,-3.82791 10.440391,10.440391 0 0 1 3.825177,-14.25937 10.440391,10.440391 0 0 1 14.260108,3.82244"
         sodipodi:open="true"
         transform="rotate(157.77494)" />
    </g>
    <g
       id="g2932"
       transform="rotate(-68.050355,160.94829,264.01286)">
      <path
         style="fill:#daeee4;fill-opacity:1;stroke:#909090;stroke-width:2.49467;stroke-opacity:1"
         d="m 175.06333,149.51925 c 0,0 -17.18691,17.9673 -42.38904,2.93378 23.22111,-26.55139 42.38904,-2.93378 42.38904,-2.93378 z"
         id="path2920"
         sodipodi:nodetypes="ccc" />
      <path
         style="fill:#daeee4;fill-opacity:1;stroke:#909090;stroke-width:2.49467;stroke-opacity:1"
         d="m 167.51665,182.73643 c 0,0 -27.4034,3.00138 -33.42845,-26.37795 25.8605,-10.77289 33.42845,26.37795 33.42845,26.37795 z"
         id="path2922"
         sodipodi:nodetypes="ccc" />
      <path
         style="fill:#daeee4;fill-opacity:1;stroke:#909090;stroke-width:2.49467;stroke-opacity:1"
         d="m 100.32264,149.07783 c 0,0 24.83512,-23.36024 39.66011,3.27118 -12.64674,20.15984 -39.66011,-3.27118 -39.66011,-3.27118 z"
         id="path2924"
         sodipodi:nodetypes="ccc" />
      <path
         style="fill:#daeee4;fill-opacity:1;stroke:#909090;stroke-width:2.49467;stroke-opacity:1"
         d="m 141.63994,115.97988 c 0,0 20.12523,22.78208 -1.34558,36.80406 -20.61081,-11.37234 1.34558,-36.80406 1.34558,-36.80406 z"
         id="path2926"
         sodipodi:nodetypes="ccc" />
      <path
         style="fill:#daeee4;fill-opacity:1;stroke:#909090;stroke-width:2.49467;stroke-opacity:1"
         d="m 113.605,185.0777 c 0,0 0.0216,-24.8639 28.63077,-31.39614 1.54258,35.23943 -28.63077,31.39614 -28.63077,31.39614 z"
         id="path2928"
         sodipodi:nodetypes="ccc" />
      <path
         style="fill:#bfd04b;fill-opacity:1;stroke:#bddf00;stroke-width:2;stroke-opacity:1"
         id="path2930"
         sodipodi:type="arc"
         sodipodi:cx="-70.736404"
         sodipodi:cy="-196.68132"
         sodipodi:rx="10.440391"
         sodipodi:ry="10.440391"
         sodipodi:start="5.7603524"
         sodipodi:end="5.7595865"
         sodipodi:arc-type="arc"
         d="m -61.690766,-201.89459 a 10.440391,10.440391 0 0 1 -3.830637,14.25791 10.440391,10.440391 0 0 1 -14.258643,-3.82791 10.440391,10.440391 0 0 1 3.825177,-14.25937 10.440391,10.440391 0 0 1 14.260108,3.82244"
         sodipodi:open="true"
         transform="rotate(157.77494)" />
    </g>
    <g
       id="g4850"
       transform="matrix(0.9661392,-0.15454344,0.16230855,0.91991749,-49.469857,93.088303)">
      <path
         style="fill:#59b68d;fill-opacity:1;stroke:#42a36b;stroke-width:2;stroke-opacity:1"
         d="m 45.96281,108.72237 c 0,0 14.88121,-33.437892 54.58125,-17.429816 C 81.012785,121.76921 45.96281,108.72237 45.96281,108.72237 Z"
         id="path4846" />
      <path
         style="fill:#59b68d;fill-opacity:1;stroke:#42a36b;stroke-width:2;stroke-opacity:1"
         d="M 91.934741,94.474519 C 74.890368,106.75476 59.952523,92.876702 47.318753,108.53294"
         id="path4848"
         sodipodi:nodetypes="cc" />
    </g>
  </g>
</svg>
